<svg xmlns="http://www.w3.org/2000/svg" viewBox="0 0 512 512">
  <path fill="#000" d="M256 54 430 151v210L256 464 82 361V151L256 54Zm0 41-138 77v168l138 82 138-82V172L256 95Z"/>
  <path fill="#000" d="M149 220c-28 3-50 23-57 51l-17 67c-10 40 31 72 66 50l39-25h152l39 25c35 22 76-10 66-50l-17-67c-7-28-29-48-57-51l-58-5h-98l-58 5Zm8 45h29v22h22v29h-22v22h-29v-22h-22v-29h22v-22Zm187-2a16 16 0 1 1 0 32 16 16 0 0 1 0-32Zm-31 25a16 16 0 1 1 0 32 16 16 0 0 1 0-32Zm62 0a16 16 0 1 1 0 32 16 16 0 0 1 0-32Zm-31 25a16 16 0 1 1 0 32 16 16 0 0 1 0-32Z"/>
  <path fill="#000" d="M232 229h48l-6 69h-36l-6-69Z"/>
  <ellipse cx="256" cy="306" rx="51" ry="28" fill="#000"/>
  <circle cx="256" cy="184" r="56" fill="#000"/>
</svg>
